<svg width="17" height="16" viewBox="0 0 17 16" fill="none" xmlns="http://www.w3.org/2000/svg">
<g clip-path="url(#clip0_2225_80)">
<path d="M11.8333 4.00001H15.1667V5.33334H13.8333V14C13.8333 14.1768 13.7631 14.3464 13.6381 14.4714C13.513 14.5964 13.3435 14.6667 13.1667 14.6667H3.83333C3.65652 14.6667 3.48695 14.5964 3.36192 14.4714C3.2369 14.3464 3.16666 14.1768 3.16666 14V5.33334H1.83333V4.00001H5.16666V2.00001C5.16666 1.8232 5.2369 1.65363 5.36192 1.52861C5.48695 1.40358 5.65652 1.33334 5.83333 1.33334H11.1667C11.3435 1.33334 11.513 1.40358 11.6381 1.52861C11.7631 1.65363 11.8333 1.8232 11.8333 2.00001V4.00001ZM12.5 5.33334H4.49999V13.3333H12.5V5.33334ZM6.5 2.66668V4.00001H10.5V2.66668H6.5Z" fill="#809A9C"/>
</g>
<defs>
<clipPath id="clip0_2225_80">
<rect width="16" height="16" fill="white" transform="translate(0.5)"/>
</clipPath>
</defs>
</svg>
